<svg version="1.1" id="Layer_1" xmlns="http://www.w3.org/2000/svg" xmlns:xlink="http://www.w3.org/1999/xlink" x="0px" y="0px"
	 width="100%" viewBox="0 0 1280 637" enable-background="new 0 0 1280 637" xml:space="preserve">
<path fill="#FFFFFF" opacity="1.000000" stroke="none" 
	d="
M764.000000,638.000000 
	C509.366455,638.000000 255.232895,638.000000 1.049675,638.000000 
	C1.049675,425.727448 1.049675,213.454910 1.049675,1.091175 
	C427.550262,1.091175 854.100586,1.091175 1280.825439,1.091175 
	C1280.825439,213.333221 1280.825439,425.666595 1280.825439,638.000000 
	C1108.788208,638.000000 936.644104,638.000000 764.000000,638.000000 
M399.177826,579.192749 
	C398.450012,579.449524 397.722198,579.706238 396.074127,579.772217 
	C365.153473,579.797607 334.232788,579.822937 303.029175,578.966980 
	C302.957214,578.140625 302.834473,577.315186 302.820496,576.487854 
	C301.833649,518.102600 300.854126,459.717255 299.879639,401.331787 
	C299.815216,397.471802 299.794830,393.611115 300.643555,389.845337 
	C305.424072,389.380951 310.251831,389.198242 314.977203,388.405243 
	C340.450562,384.130402 361.500061,371.757172 377.953186,352.109283 
	C383.722992,345.219086 387.586060,336.732239 392.808960,328.478668 
	C393.486481,326.442108 394.088989,324.376984 394.853027,322.373413 
	C403.229095,300.408234 403.906219,278.041656 397.245972,255.673141 
	C389.262482,228.860550 372.707336,208.092468 348.419891,194.636917 
	C329.523651,184.168182 308.912231,179.206055 286.720642,181.826660 
	C259.010986,185.098892 236.176178,196.895569 217.410950,218.285767 
	C216.960495,218.983795 216.557281,219.718140 216.052765,220.374634 
	C192.016815,251.651871 186.587357,286.030060 200.256607,322.877319 
	C214.991165,362.596283 252.237518,388.409973 295.309357,390.811920 
	C294.208160,453.686066 293.106964,516.560242 292.001556,579.674683 
	C276.511139,579.674683 261.695160,579.674622 246.879150,579.674622 
	C232.055130,579.674622 217.231094,579.674622 202.407074,579.674622 
	C187.583054,579.674622 172.758362,579.588135 157.935181,579.699280 
	C143.445084,579.807922 128.924423,579.221069 114.456543,580.040771 
	C114.453110,580.700439 114.449677,581.360107 114.446243,582.019775 
	C116.174431,582.019775 117.902626,582.019775 119.630814,582.019775 
	C162.770401,582.020508 205.909988,582.036987 249.049561,582.014282 
	C266.368011,582.005127 283.686401,581.909973 301.932587,581.991882 
	C333.947784,581.943665 365.962982,581.895508 398.849335,581.997375 
	C400.908112,581.949768 402.966858,581.902100 405.950165,581.996033 
	C658.271362,582.000854 910.592529,582.005676 1162.913696,582.009949 
	C1163.913574,582.009949 1164.942139,582.144104 1165.904419,581.951538 
	C1166.669312,581.798462 1167.353394,581.241089 1168.073364,580.863220 
	C1167.999878,580.488647 1167.926392,580.114136 1167.852905,579.739624 
	C1166.081543,579.739624 1164.310181,579.739746 1162.538818,579.739563 
	C1140.039917,579.736633 1117.541016,579.758606 1095.042114,579.723572 
	C1074.048096,579.690918 1053.054199,579.597778 1032.013306,578.666199 
	C1032.013306,575.379700 1032.013306,572.093140 1032.013306,568.795715 
	C1030.073975,568.164734 1028.590088,567.681946 1027.005737,567.166443 
	C1027.005737,540.874634 1026.991821,514.845947 1027.057983,488.817505 
	C1027.060547,487.800262 1027.830078,486.784973 1028.988647,485.908447 
	C1036.153076,487.406799 1041.054688,485.464874 1043.671021,480.091461 
	C1046.185425,474.927490 1044.806519,469.722076 1039.602173,465.121307 
	C1035.407837,461.413391 1031.144287,457.783966 1026.976074,453.170563 
	C1026.976074,448.249451 1026.976074,443.328369 1026.976074,438.314423 
	C1028.748413,438.160797 1029.720825,438.006287 1030.693726,438.003357 
	C1038.181274,437.980713 1045.675903,438.157532 1053.150757,437.848755 
	C1054.739502,437.783112 1057.169067,436.237305 1057.543701,434.904663 
	C1057.900635,433.634766 1056.449219,431.273926 1055.128174,430.253235 
	C1053.206543,428.768677 1050.702393,428.024567 1048.422729,427.019226 
	C1032.329590,419.922241 1016.385315,412.455383 1000.085510,405.869019 
	C986.191650,400.254883 973.462830,391.427185 957.990540,389.103943 
	C958.005127,349.095245 958.019714,309.086578 958.966003,269.026306 
	C972.293640,269.017090 985.623413,269.120789 998.946655,268.874390 
	C1000.899292,268.838287 1003.965027,267.520142 1004.441650,266.099396 
	C1004.938110,264.619568 1003.408142,261.761292 1001.932312,260.423187 
	C979.036865,239.664444 956.005493,219.055695 933.007019,198.410645 
	C913.344421,180.760178 893.673157,163.119308 874.024963,145.452835 
	C850.545776,124.341667 827.232361,103.043243 803.575378,82.133476 
	C783.101807,64.037445 759.207642,55.508953 731.684204,57.913029 
	C709.109924,59.884804 689.837524,68.828941 673.703430,84.704384 
	C671.042175,87.322983 668.078735,89.634453 664.025513,93.156059 
	C664.025513,85.054161 663.925842,78.487129 664.061157,71.924942 
	C664.148682,67.681152 662.342651,65.875771 658.082092,65.958061 
	C650.588074,66.102806 643.089294,65.990799 635.592468,65.999832 
	C629.000427,66.007767 628.054565,66.903191 628.039612,73.437935 
	C628.009521,86.598900 627.419739,99.797615 628.224792,112.909286 
	C628.883301,123.634521 627.344116,132.596832 617.285095,138.360062 
	C616.447571,138.839874 615.863525,139.753586 615.141418,140.444473 
	C600.113464,154.823441 585.061035,169.177017 570.056946,183.580841 
	C543.647949,208.933182 517.235229,234.282120 490.959015,259.771545 
	C489.421173,261.263306 487.772217,264.859070 488.490448,265.946808 
	C489.615540,267.650757 492.701080,268.823822 494.985321,268.873077 
	C508.306732,269.160339 521.636658,269.054382 534.990540,270.001495 
	C534.969543,310.273041 534.948547,350.544556 534.183655,390.952789 
	C523.728699,395.173279 513.282166,399.414948 502.816803,403.609497 
	C485.891235,410.393372 468.953217,417.146301 452.022491,423.108795 
	C450.267334,418.172241 449.290161,412.759338 446.613068,408.387299 
	C438.133087,394.538147 425.866699,385.898468 409.453827,383.652252 
	C390.804596,381.100006 375.226654,386.586243 362.542450,401.238403 
	C362.286896,401.443237 362.099823,401.698334 361.530731,402.210022 
	C361.250397,402.417206 361.079651,402.692352 360.684540,403.621735 
	C352.658508,414.839813 349.173096,427.077271 350.796204,441.028015 
	C353.653473,465.587494 375.608673,486.350677 400.974182,487.000000 
	C400.794891,496.954254 400.563202,506.907867 400.447449,516.862854 
	C400.218140,536.590393 400.052826,556.318726 399.624146,576.732971 
	C399.645752,577.453796 399.667358,578.174683 399.177826,579.192749 
z"/>
<path fill="#CACACA" opacity="1.000000" stroke="none" 
	d="
M534.963684,269.081238 
	C521.636658,269.054382 508.306732,269.160339 494.985321,268.873077 
	C492.701080,268.823822 489.615540,267.650757 488.490448,265.946808 
	C487.772217,264.859070 489.421173,261.263306 490.959015,259.771545 
	C517.235229,234.282120 543.647949,208.933182 570.056946,183.580841 
	C585.061035,169.177017 600.113464,154.823441 615.141418,140.444473 
	C615.863525,139.753586 616.447571,138.839874 617.285095,138.360062 
	C627.344116,132.596832 628.883301,123.634521 628.224792,112.909286 
	C627.419739,99.797615 628.009521,86.598900 628.039612,73.437935 
	C628.054565,66.903191 629.000427,66.007767 635.592468,65.999832 
	C643.089294,65.990799 650.588074,66.102806 658.082092,65.958061 
	C662.342651,65.875771 664.148682,67.681152 664.061157,71.924942 
	C663.925842,78.487129 664.025513,85.054161 664.025513,93.156059 
	C668.078735,89.634453 671.042175,87.322983 673.703430,84.704384 
	C689.837524,68.828941 709.109924,59.884804 731.684204,57.913029 
	C759.207642,55.508953 783.101807,64.037445 803.575378,82.133476 
	C827.232361,103.043243 850.545776,124.341667 874.024963,145.452835 
	C893.673157,163.119308 913.344421,180.760178 933.007019,198.410645 
	C956.005493,219.055695 979.036865,239.664444 1001.932312,260.423187 
	C1003.408142,261.761292 1004.938110,264.619568 1004.441650,266.099396 
	C1003.965027,267.520142 1000.899292,268.838287 998.946655,268.874390 
	C985.623413,269.120789 972.293640,269.017090 958.028687,269.021667 
	C940.433411,269.023468 923.775391,269.029846 907.049377,268.569702 
	C908.094788,244.097046 903.106079,221.369324 891.519409,200.378235 
	C861.796570,146.530640 800.292236,121.530861 741.236511,139.983582 
	C700.854553,152.601410 673.596008,179.727524 658.934998,219.455338 
	C653.020996,235.480896 651.513550,252.120132 651.427979,269.028625 
	C612.299255,269.043152 573.631470,269.062195 534.963684,269.081238 
z"/>
<path fill="#C9C9CA" opacity="1.000000" stroke="none" 
	d="
M1028.242310,485.768768 
	C1027.830078,486.784973 1027.060547,487.800262 1027.057983,488.817505 
	C1026.991821,514.845947 1027.005737,540.874634 1027.005737,567.166443 
	C1028.590088,567.681946 1030.073975,568.164734 1032.013306,568.795715 
	C1032.013306,572.093140 1032.013306,575.379700 1031.575073,579.199402 
	C844.206299,579.743774 657.275757,579.756042 470.345245,579.756836 
	C467.186676,579.756836 464.028076,579.617371 460.901978,579.112732 
	C461.216949,575.249084 461.304169,571.783630 461.859283,568.394836 
	C462.165161,566.527649 463.895508,564.791138 463.901093,562.992371 
	C464.024811,523.159668 464.000824,483.326508 463.985504,443.493439 
	C463.984833,441.748260 463.798981,440.003174 463.690887,438.108612 
	C459.728119,438.108612 456.407166,438.108612 452.614838,438.072876 
	C447.843994,438.014435 443.515350,438.268463 439.260773,437.819824 
	C437.759094,437.661499 435.355194,435.836823 435.300873,434.681885 
	C435.227844,433.128662 436.656769,430.774780 438.099304,430.016083 
	C442.572357,427.663391 447.356842,425.902710 452.020477,423.912292 
	C468.953217,417.146301 485.891235,410.393372 502.816803,403.609497 
	C513.282166,399.414948 523.728699,395.173279 535.029785,390.935730 
	C662.096680,390.928162 788.317383,390.937622 914.852478,391.001282 
	C916.838501,392.421112 918.533997,393.758667 920.178040,395.156738 
	C936.886597,409.366119 953.586670,423.585388 969.802979,437.854431 
	C967.484741,437.932587 965.652588,437.980560 963.820435,437.980652 
	C819.367126,437.987549 674.913818,437.989502 530.460510,437.997437 
	C522.630310,437.997864 514.800049,438.045898 506.504883,438.039917 
	C494.793793,438.008057 483.547668,438.008057 472.266174,438.008057 
	C472.266174,481.714325 472.266174,524.590942 472.266174,567.935608 
	C484.075287,567.935608 495.523956,567.935608 507.442505,567.958984 
	C576.233948,567.991516 644.555603,567.964111 712.876953,568.098633 
	C717.102417,568.106934 718.157898,566.817383 718.139282,562.729919 
	C717.987671,529.402954 718.118530,496.074707 717.975464,462.747650 
	C717.957031,458.439056 719.182861,456.898285 723.638855,456.966949 
	C738.632751,457.198090 753.636047,457.239899 768.627625,456.942474 
	C773.186523,456.852020 774.140198,458.333832 774.118347,462.614380 
	C773.949829,495.607880 774.025635,528.602661 774.025757,561.597046 
	C774.025757,563.538269 774.025757,565.479431 774.025757,567.952087 
	C845.144226,567.952087 915.582397,567.952087 986.486694,567.979065 
	C997.527832,568.006042 1008.102966,568.006042 1019.119507,568.006042 
	C1019.119507,537.719788 1019.119507,508.276184 1019.437012,478.948669 
	C1022.583801,481.299469 1025.413086,483.534119 1028.242310,485.768768 
z"/>
<path fill="#E4E4E4" opacity="1.000000" stroke="none" 
	d="
M217.950241,217.874252 
	C236.176178,196.895569 259.010986,185.098892 286.720642,181.826660 
	C308.912231,179.206055 329.523651,184.168182 348.419891,194.636917 
	C372.707336,208.092468 389.262482,228.860550 397.245972,255.673141 
	C403.906219,278.041656 403.229095,300.408234 394.853027,322.373413 
	C394.088989,324.376984 393.486481,326.442108 392.213684,328.833496 
	C378.555573,341.259979 364.317078,351.403320 346.989014,356.519440 
	C331.303162,361.150726 315.352600,361.944366 299.126007,359.463013 
	C298.693298,342.592590 298.331940,326.181000 297.970551,309.769409 
	C297.689911,309.772217 297.409271,309.775024 297.128662,309.777832 
	C296.683563,326.162354 296.238464,342.546906 295.409393,358.935791 
	C263.579010,351.925171 239.602524,334.614136 224.236496,306.255219 
	C209.890549,279.778900 208.072021,251.948410 217.282471,223.324188 
	C217.833054,221.613083 217.742477,219.695663 217.950241,217.874252 
z"/>
<path fill="#403E56" opacity="1.000000" stroke="none" 
	d="
M1028.615479,485.838623 
	C1025.413086,483.534119 1022.583801,481.299469 1019.251221,478.673279 
	C1008.200806,469.501923 997.653809,460.722107 986.979370,451.627502 
	C981.331116,446.809082 975.810120,442.305481 970.289124,437.801880 
	C953.586670,423.585388 936.886597,409.366119 920.178040,395.156738 
	C918.533997,393.758667 916.838501,392.421112 914.677124,390.683716 
	C904.713257,382.266022 895.255737,374.200439 885.742554,366.200958 
	C884.648621,365.281036 883.245056,364.729401 881.785889,363.738647 
	C877.515076,359.696503 873.443359,355.922699 869.210449,351.999451 
	C864.433777,356.259064 860.145020,360.083557 855.527100,364.001038 
	C854.617493,364.415039 854.010559,364.696198 853.460571,365.062836 
	C807.779114,395.516693 760.940308,396.546844 713.303284,370.124146 
	C697.355957,361.278656 684.976013,348.242065 674.060913,333.385986 
	C666.082886,321.267548 660.400757,308.441864 656.154419,294.542175 
	C654.737793,285.768616 653.313293,277.400848 651.888855,269.033112 
	C651.513550,252.120132 653.020996,235.480896 658.934998,219.455338 
	C673.596008,179.727524 700.854553,152.601410 741.236511,139.983582 
	C800.292236,121.530861 861.796570,146.530640 891.519409,200.378235 
	C903.106079,221.369324 908.094788,244.097046 906.937134,268.985840 
	C905.087036,293.198730 897.596741,314.585052 884.306580,334.137512 
	C894.451294,342.698151 904.192017,350.989685 914.011719,359.186707 
	C927.287476,370.268646 940.623779,381.278076 954.060547,392.614258 
	C972.444641,408.290253 990.702148,423.670563 1009.139526,439.330627 
	C1012.521301,442.195618 1015.723206,444.780853 1019.081360,447.647400 
	C1021.795532,449.992371 1024.353394,452.056030 1026.911377,454.119690 
	C1031.144287,457.783966 1035.407837,461.413391 1039.602173,465.121307 
	C1044.806519,469.722076 1046.185425,474.927490 1043.671021,480.091461 
	C1041.054688,485.464874 1036.153076,487.406799 1028.615479,485.838623 
M841.355713,331.835876 
	C841.744385,331.786743 842.133057,331.737640 842.753235,332.090088 
	C842.956665,332.083038 843.160034,332.075989 843.363464,332.068939 
	C843.144287,331.881653 842.925049,331.694366 842.683960,330.830292 
	C843.852417,329.656891 845.041077,328.502808 846.186401,327.307281 
	C866.332886,306.279816 875.999756,281.427063 873.700073,251.337418 
	C871.368591,227.192078 861.408691,206.809998 843.769714,190.114136 
	C810.117737,158.261597 756.141602,155.904236 719.744324,184.566345 
	C709.644104,192.520020 702.125854,202.538071 694.317322,213.077835 
	C690.900635,217.669403 686.850952,221.922363 684.181152,226.913437 
	C674.604004,244.817276 670.987854,263.867859 673.870544,284.173584 
	C675.570801,296.150360 678.845886,307.562500 684.740601,318.033051 
	C695.041565,336.330261 709.562134,350.143402 729.011841,358.717316 
	C750.689758,368.273529 772.855652,369.710449 795.568481,363.625671 
	C811.491760,359.359802 824.424622,349.761749 836.761963,339.361908 
	C838.732605,337.700714 839.591919,334.721130 841.355713,331.835876 
z"/>
<path fill="#EFEFEF" opacity="1.000000" stroke="none" 
	d="
M674.143188,333.714447 
	C684.976013,348.242065 697.355957,361.278656 713.303284,370.124146 
	C760.940308,396.546844 807.779114,395.516693 853.460571,365.062836 
	C854.010559,364.696198 854.617493,364.415039 856.005249,364.005310 
	C865.203491,363.946747 873.594238,363.976898 881.985046,364.007019 
	C883.245056,364.729401 884.648621,365.281036 885.742554,366.200958 
	C895.255737,374.200439 904.713257,382.266022 914.362732,390.629517 
	C788.317383,390.937622 662.096680,390.928162 535.401733,390.867401 
	C534.948547,350.544556 534.969543,310.273041 534.977112,269.541382 
	C573.631470,269.062195 612.299255,269.043152 651.427979,269.028625 
	C653.313293,277.400848 654.737793,285.768616 655.711670,294.559113 
	C654.102539,294.915588 652.866699,295.090057 651.797363,294.746399 
	C638.568359,290.495789 619.227661,302.800385 619.919189,320.573242 
	C620.326050,331.029388 620.002258,341.513977 619.551392,352.000854 
	C616.520996,352.015930 613.946228,352.015930 611.295959,352.015930 
	C611.163269,354.068207 611.040771,355.216309 611.022766,356.366058 
	C610.918762,363.051453 610.927063,363.050385 617.772522,363.050018 
	C635.592041,363.049042 653.411621,363.048340 671.231140,363.049500 
	C680.645996,363.050140 680.649719,363.051666 679.824829,353.416626 
	C679.799866,353.125214 679.513245,352.856232 679.133057,352.210693 
	C677.570068,352.131714 675.773804,352.040924 673.982544,351.485138 
	C674.039490,345.251556 674.091309,339.483002 674.143188,333.714447 
z"/>
<path fill="#E4E4E4" opacity="1.000000" stroke="none" 
	d="
M452.021484,423.510559 
	C447.356842,425.902710 442.572357,427.663391 438.099304,430.016083 
	C436.656769,430.774780 435.227844,433.128662 435.300873,434.681885 
	C435.355194,435.836823 437.759094,437.661499 439.260773,437.819824 
	C443.515350,438.268463 447.843994,438.014435 452.593689,438.499023 
	C451.673065,444.647675 450.302185,450.334473 448.708008,456.209106 
	C448.321411,456.950012 448.158173,457.503052 447.993378,458.024841 
	C447.991821,457.993591 448.054352,457.994781 447.700806,458.016235 
	C446.287567,458.794159 445.197571,459.511902 444.172668,460.312927 
	C431.997833,469.828949 418.441101,473.998596 402.952942,470.611267 
	C402.864777,469.197205 402.842926,468.164825 402.928040,466.664581 
	C403.034973,456.036896 403.034973,445.877045 403.034973,435.717194 
	C402.534393,435.728485 402.033783,435.739777 401.533203,435.751068 
	C401.533203,446.272034 401.533203,456.792969 401.492188,467.585968 
	C401.319916,468.916443 401.188690,469.974884 400.673401,470.988708 
	C389.457794,468.486267 380.262054,463.095917 372.951630,454.825012 
	C360.605255,440.856506 357.127960,424.661407 361.578583,406.629089 
	C361.846527,405.543457 361.225708,404.238464 361.018433,403.035522 
	C361.079651,402.692352 361.250397,402.417206 361.968750,402.003082 
	C362.664764,401.602112 362.857819,401.356964 362.985931,401.060699 
	C375.226654,386.586243 390.804596,381.100006 409.453827,383.652252 
	C425.866699,385.898468 438.133087,394.538147 446.613068,408.387299 
	C449.290161,412.759338 450.267334,418.172241 452.021484,423.510559 
z"/>
<path fill="#EFEFF0" opacity="1.000000" stroke="none" 
	d="
M953.934082,392.318604 
	C940.623779,381.278076 927.287476,370.268646 914.011719,359.186707 
	C904.192017,350.989685 894.451294,342.698151 884.306580,334.137512 
	C897.596741,314.585052 905.087036,293.198730 907.005127,269.452393 
	C923.775391,269.029846 940.433411,269.023468 957.562866,269.047485 
	C958.019714,309.086578 958.005127,349.095245 957.618225,389.582275 
	C956.141968,390.813293 955.038025,391.565948 953.934082,392.318604 
z"/>
<path fill="#B7B7B7" opacity="1.000000" stroke="none" 
	d="
M217.680603,218.080017 
	C217.742477,219.695663 217.833054,221.613083 217.282471,223.324188 
	C208.072021,251.948410 209.890549,279.778900 224.236496,306.255219 
	C239.602524,334.614136 263.579010,351.925171 295.466858,359.401245 
	C295.654938,369.863678 295.401581,379.864960 295.148193,389.866272 
	C252.237518,388.409973 214.991165,362.596283 200.256607,322.877319 
	C186.587357,286.030060 192.016815,251.651871 216.052765,220.374634 
	C216.557281,219.718140 216.960495,218.983795 217.680603,218.080017 
z"/>
<path fill="#454458" opacity="1.000000" stroke="none" 
	d="
M295.228760,390.339111 
	C295.401581,379.864960 295.654938,369.863678 295.850861,359.396912 
	C296.238464,342.546906 296.683563,326.162354 297.128662,309.777832 
	C297.409271,309.775024 297.689911,309.772217 297.970551,309.769409 
	C298.331940,326.181000 298.693298,342.592590 299.065277,359.929016 
	C299.301880,370.486176 299.527893,380.118439 299.753937,389.750732 
	C299.794830,393.611115 299.815216,397.471802 299.879639,401.331787 
	C300.854126,459.717255 301.833649,518.102600 302.820496,576.487854 
	C302.834473,577.315186 302.957214,578.140625 302.833862,579.474365 
	C302.093933,580.605835 301.549377,581.229858 301.004822,581.853882 
	C283.686401,581.909973 266.368011,582.005127 249.049561,582.014282 
	C205.909988,582.036987 162.770401,582.020508 119.630814,582.019775 
	C117.902626,582.019775 116.174431,582.019775 114.446243,582.019775 
	C114.449677,581.360107 114.453110,580.700439 114.456543,580.040771 
	C128.924423,579.221069 143.445084,579.807922 157.935181,579.699280 
	C172.758362,579.588135 187.583054,579.674622 202.407074,579.674622 
	C217.231094,579.674622 232.055130,579.674622 246.879150,579.674622 
	C261.695160,579.674622 276.511139,579.674683 292.001556,579.674683 
	C293.106964,516.560242 294.208160,453.686066 295.228760,390.339111 
z"/>
<path fill="#CACACA" opacity="1.000000" stroke="none" 
	d="
M954.060547,392.614288 
	C955.038025,391.565948 956.141968,390.813293 957.609863,390.053833 
	C973.462830,391.427185 986.191650,400.254883 1000.085510,405.869019 
	C1016.385315,412.455383 1032.329590,419.922241 1048.422729,427.019226 
	C1050.702393,428.024567 1053.206543,428.768677 1055.128174,430.253235 
	C1056.449219,431.273926 1057.900635,433.634766 1057.543701,434.904663 
	C1057.169067,436.237305 1054.739502,437.783112 1053.150757,437.848755 
	C1045.675903,438.157532 1038.181274,437.980713 1030.693726,438.003357 
	C1029.720825,438.006287 1028.748413,438.160797 1026.976074,438.314423 
	C1026.976074,443.328369 1026.976074,448.249451 1026.943726,453.645142 
	C1024.353394,452.056030 1021.795532,449.992371 1019.195923,447.266479 
	C1019.154175,443.902985 1019.154175,441.201721 1019.154175,437.528046 
	C1015.185791,438.120850 1012.072754,438.585876 1008.959656,439.050903 
	C990.702148,423.670563 972.444641,408.290253 954.060547,392.614288 
z"/>
<path fill="#B7B7B7" opacity="1.000000" stroke="none" 
	d="
M300.198730,389.798035 
	C299.527893,380.118439 299.301880,370.486176 299.136597,360.387878 
	C315.352600,361.944366 331.303162,361.150726 346.989014,356.519440 
	C364.317078,351.403320 378.555573,341.259979 391.969116,329.081421 
	C387.586060,336.732239 383.722992,345.219086 377.953186,352.109283 
	C361.500061,371.757172 340.450562,384.130402 314.977203,388.405243 
	C310.251831,389.198242 305.424072,389.380951 300.198730,389.798035 
z"/>
<path fill="#414050" opacity="1.000000" stroke="none" 
	d="
M460.869507,579.542969 
	C464.028076,579.617371 467.186676,579.756836 470.345245,579.756836 
	C657.275757,579.756042 844.206299,579.743774 1031.598511,579.631958 
	C1053.054199,579.597778 1074.048096,579.690918 1095.042114,579.723572 
	C1117.541016,579.758606 1140.039917,579.736633 1162.538818,579.739563 
	C1164.310181,579.739746 1166.081543,579.739624 1167.852905,579.739624 
	C1167.926392,580.114136 1167.999878,580.488647 1168.073364,580.863220 
	C1167.353394,581.241089 1166.669312,581.798462 1165.904419,581.951538 
	C1164.942139,582.144104 1163.913574,582.009949 1162.913696,582.009949 
	C910.592529,582.005676 658.271362,582.000854 405.599426,581.680542 
	C405.506500,580.896362 405.764313,580.427673 406.480804,579.862671 
	C424.916138,579.691833 442.892822,579.617432 460.869507,579.542969 
z"/>
<path fill="#B8B8B8" opacity="1.000000" stroke="none" 
	d="
M360.851501,403.328613 
	C361.225708,404.238464 361.846527,405.543457 361.578583,406.629089 
	C357.127960,424.661407 360.605255,440.856506 372.951630,454.825012 
	C380.262054,463.095917 389.457794,468.486267 400.731140,471.450073 
	C401.061340,476.666321 400.949768,481.376556 400.838165,486.086761 
	C375.608673,486.350677 353.653473,465.587494 350.796204,441.028015 
	C349.173096,427.077271 352.658508,414.839813 360.851501,403.328613 
z"/>
<path fill="#454458" opacity="1.000000" stroke="none" 
	d="
M400.906189,486.543396 
	C400.949768,481.376556 401.061340,476.666321 401.115173,471.494720 
	C401.188690,469.974884 401.319916,468.916443 401.708496,467.571259 
	C402.242188,467.184814 402.527252,467.134125 402.821106,467.132416 
	C402.842926,468.164825 402.864777,469.197205 402.896057,471.075439 
	C402.998749,476.649506 403.092010,481.377777 403.115662,486.558685 
	C403.179871,493.144257 403.345276,499.276672 403.441833,505.410156 
	C403.812347,528.941650 404.160706,552.473511 404.129944,576.005554 
	C402.448761,576.019470 401.154907,576.033081 399.861084,576.046692 
	C400.052826,556.318726 400.218140,536.590393 400.447449,516.862854 
	C400.563202,506.907867 400.794891,496.954254 400.906189,486.543396 
z"/>
<path fill="#414050" opacity="1.000000" stroke="none" 
	d="
M301.468689,581.922852 
	C301.549377,581.229858 302.093933,580.605835 302.975342,579.915039 
	C334.232788,579.822937 365.153473,579.797607 396.626160,580.118042 
	C397.444855,580.925049 397.711517,581.386230 397.978180,581.847351 
	C365.962982,581.895508 333.947784,581.943665 301.468689,581.922852 
z"/>
<path fill="#454458" opacity="1.000000" stroke="none" 
	d="
M398.413757,581.922363 
	C397.711517,581.386230 397.444855,580.925049 397.086304,580.213501 
	C397.722198,579.706238 398.450012,579.449524 399.851013,579.075073 
	C401.913910,578.997375 403.303680,579.037476 404.775391,578.989319 
	C404.857361,578.901062 405.093048,578.950928 405.119080,579.214417 
	C405.461548,579.511169 405.777985,579.544373 406.152588,579.687378 
	C406.210785,579.797180 406.022186,579.959045 406.022156,579.959045 
	C405.764313,580.427673 405.506500,580.896362 405.137146,581.609741 
	C402.966858,581.902100 400.908112,581.949768 398.413757,581.922363 
z"/>
<path fill="#414050" opacity="1.000000" stroke="none" 
	d="
M404.693420,579.077576 
	C403.303680,579.037476 401.913910,578.997375 400.106567,578.926392 
	C399.667358,578.174683 399.645752,577.453796 399.742615,576.389832 
	C401.154907,576.033081 402.448761,576.019470 404.238647,576.378906 
	C404.720917,577.527161 404.707184,578.302368 404.693420,579.077576 
z"/>
<path fill="#B8B8B8" opacity="1.000000" stroke="none" 
	d="
M362.764191,401.149536 
	C362.857819,401.356964 362.664764,401.602112 362.194000,401.899902 
	C362.099823,401.698334 362.286896,401.443237 362.764191,401.149536 
z"/>
<path fill="#F0F0F0" opacity="1.000000" stroke="none" 
	d="
M969.802979,437.854401 
	C975.810120,442.305481 981.331116,446.809082 986.662476,451.911316 
	C986.314636,453.974823 986.018982,455.439697 986.018311,456.904663 
	C986.000183,493.920471 986.013123,530.936279 986.020569,567.952087 
	C915.582397,567.952087 845.144226,567.952087 774.025757,567.952087 
	C774.025757,565.479431 774.025757,563.538269 774.025757,561.597046 
	C774.025635,528.602661 773.949829,495.607880 774.118347,462.614380 
	C774.140198,458.333832 773.186523,456.852020 768.627625,456.942474 
	C753.636047,457.239899 738.632751,457.198090 723.638855,456.966949 
	C719.182861,456.898285 717.957031,458.439056 717.975464,462.747650 
	C718.118530,496.074707 717.987671,529.402954 718.139282,562.729919 
	C718.157898,566.817383 717.102417,568.106934 712.876953,568.098633 
	C644.555603,567.964111 576.233948,567.991516 507.452454,567.497070 
	C506.985016,524.031799 506.977417,481.051788 506.969849,438.071747 
	C514.800049,438.045898 522.630310,437.997864 530.460510,437.997437 
	C674.913818,437.989502 819.367126,437.987549 963.820435,437.980652 
	C965.652588,437.980560 967.484741,437.932587 969.802979,437.854401 
M591.154785,515.924133 
	C588.902405,516.026672 586.650085,516.129211 584.282959,516.236938 
	C584.141724,517.731689 583.994385,518.698669 583.967651,519.668945 
	C583.765259,526.993713 583.772644,526.995850 591.015015,526.996399 
	C608.766785,526.997620 626.518494,526.996643 644.270264,526.996948 
	C653.482422,526.997131 653.488953,526.997131 652.873047,517.835449 
	C652.842224,517.377441 652.527649,516.938477 652.232849,516.215210 
	C650.175598,516.082397 648.057434,515.945679 645.972778,514.896179 
	C645.981873,504.415741 645.790833,493.930298 646.052429,483.456177 
	C646.354797,471.351532 638.983154,462.003906 628.518066,457.823639 
	C613.154480,451.686676 594.467590,462.356384 593.128113,478.517487 
	C592.102539,490.891235 592.369446,503.372070 591.154785,515.924133 
M912.973328,514.901550 
	C912.982117,504.412598 913.116211,493.921417 912.928223,483.436005 
	C912.866760,480.009216 912.862488,476.096558 911.282715,473.272888 
	C906.588684,464.882935 900.388000,458.735168 889.945129,456.506958 
	C876.790833,453.700195 859.347839,465.235413 859.045654,481.849548 
	C858.839844,493.166626 859.041382,504.491180 858.156250,515.926453 
	C855.908203,516.043091 853.660095,516.159729 851.321167,516.281067 
	C851.202637,517.997131 851.072571,519.139832 851.053040,520.284363 
	C850.938721,526.998230 850.947388,526.999023 857.753357,526.998962 
	C875.890808,526.998901 894.028320,526.997864 912.165771,526.997620 
	C921.563843,526.997498 921.567383,526.997498 920.754761,517.392639 
	C920.730042,517.100403 920.449097,516.829956 920.087585,516.201782 
	C917.846375,516.080566 915.392944,515.947815 912.973328,514.901550 
z"/>
<path fill="#FEFEFE" opacity="1.000000" stroke="none" 
	d="
M404.775391,578.989319 
	C404.707184,578.302368 404.720917,577.527161 404.626007,576.378601 
	C404.160706,552.473511 403.812347,528.941650 403.441833,505.410156 
	C403.345276,499.276672 403.179871,493.144257 403.552185,486.543091 
	C424.024780,485.020752 438.785919,475.810760 448.054352,457.994781 
	C448.054352,457.994781 447.991821,457.993591 448.226746,457.841980 
	C448.618195,457.134033 448.774750,456.577637 448.931335,456.021240 
	C450.302185,450.334473 451.673065,444.647675 453.065063,438.534729 
	C456.407166,438.108612 459.728119,438.108612 463.690887,438.108612 
	C463.798981,440.003174 463.984833,441.748260 463.985504,443.493439 
	C464.000824,483.326508 464.024811,523.159668 463.901093,562.992371 
	C463.895508,564.791138 462.165161,566.527649 461.859283,568.394836 
	C461.304169,571.783630 461.216949,575.249084 460.901978,579.112732 
	C442.892822,579.617432 424.916138,579.691833 406.480835,579.862671 
	C406.022186,579.959045 406.210785,579.797180 406.039886,579.512329 
	C405.638580,579.056091 405.379944,578.963928 405.093048,578.950928 
	C405.093048,578.950928 404.857361,578.901062 404.775391,578.989319 
z"/>
<path fill="#FFFFFF" opacity="1.000000" stroke="none" 
	d="
M506.504883,438.039917 
	C506.977417,481.051788 506.985016,524.031799 506.982635,567.473755 
	C495.523956,567.935608 484.075287,567.935608 472.266174,567.935608 
	C472.266174,524.590942 472.266174,481.714325 472.266174,438.008057 
	C483.547668,438.008057 494.793793,438.008057 506.504883,438.039917 
z"/>
<path fill="#FFFFFF" opacity="1.000000" stroke="none" 
	d="
M986.486694,567.979065 
	C986.013123,530.936279 986.000183,493.920471 986.018311,456.904663 
	C986.018982,455.439697 986.314636,453.974823 986.789795,452.226135 
	C997.653809,460.722107 1008.200806,469.501923 1018.933716,478.557159 
	C1019.119507,508.276184 1019.119507,537.719788 1019.119507,568.006042 
	C1008.102966,568.006042 997.527832,568.006042 986.486694,567.979065 
z"/>
<path fill="#6C63FC" opacity="1.000000" stroke="none" 
	d="
M695.015564,212.998718 
	C702.125854,202.538071 709.644104,192.520020 719.744324,184.566345 
	C756.141602,155.904236 810.117737,158.261597 843.769714,190.114136 
	C861.408691,206.809998 871.368591,227.192078 873.208740,251.781128 
	C848.944641,252.219742 825.171814,252.225861 801.399048,252.206970 
	C762.167175,252.175781 722.935364,252.128464 683.696655,251.628616 
	C683.966553,248.713654 683.842957,246.128464 684.588684,243.824677 
	C687.929138,233.505585 691.517029,223.266617 695.015564,212.998718 
z"/>
<path fill="#EEEEF0" opacity="1.000000" stroke="none" 
	d="
M683.703491,252.087921 
	C722.935364,252.128464 762.167175,252.175781 801.399048,252.206970 
	C825.171814,252.225861 848.944641,252.219742 873.155640,252.198334 
	C875.999756,281.427063 866.332886,306.279816 846.186401,327.307281 
	C845.041077,328.502808 843.852417,329.656891 842.658447,331.223755 
	C842.632935,331.617249 842.521729,331.688538 842.521729,331.688538 
	C842.133057,331.737640 841.744385,331.786743 840.864319,332.217987 
	C832.689819,337.445770 825.336487,342.957306 817.239624,346.967529 
	C807.266724,351.906891 796.461670,354.697174 785.197632,354.302460 
	C785.231384,339.729095 785.382141,325.602692 785.149658,311.482605 
	C784.961060,300.028839 775.559570,288.762329 764.504089,287.189667 
	C757.643372,286.213684 750.559631,285.852814 743.653076,286.330170 
	C723.096313,287.750946 712.774719,296.818420 713.810425,318.896637 
	C713.969788,322.291779 713.343689,325.723755 712.772034,328.986389 
	C703.685730,320.121460 696.410461,310.319366 691.478149,298.943268 
	C684.998169,283.997650 681.589172,268.486664 683.703491,252.087921 
z"/>
<path fill="#2E2D3F" opacity="1.000000" stroke="none" 
	d="
M785.149048,354.752167 
	C796.461670,354.697174 807.266724,351.906891 817.239624,346.967529 
	C825.336487,342.957306 832.689819,337.445770 840.668945,332.475586 
	C839.591919,334.721130 838.732605,337.700714 836.761963,339.361908 
	C824.424622,349.761749 811.491760,359.359802 795.568481,363.625671 
	C772.855652,369.710449 750.689758,368.273529 729.011841,358.717316 
	C709.562134,350.143402 695.041565,336.330261 684.740601,318.033051 
	C678.845886,307.562500 675.570801,296.150360 673.870544,284.173584 
	C670.987854,263.867859 674.604004,244.817276 684.181152,226.913437 
	C686.850952,221.922363 690.900635,217.669403 694.666443,213.038284 
	C691.517029,223.266617 687.929138,233.505585 684.588684,243.824677 
	C683.842957,246.128464 683.966553,248.713654 683.696655,251.628632 
	C681.589172,268.486664 684.998169,283.997650 691.478149,298.943268 
	C696.410461,310.319366 703.685730,320.121460 712.922852,329.266022 
	C714.662476,330.755402 715.934631,331.822418 717.223633,332.868805 
	C737.033752,348.950897 759.512817,356.752411 785.149048,354.752167 
z"/>
<path fill="#FEFEFE" opacity="1.000000" stroke="none" 
	d="
M620.007019,351.985779 
	C620.002258,341.513977 620.326050,331.029388 619.919189,320.573242 
	C619.227661,302.800385 638.568359,290.495789 651.797363,294.746399 
	C652.866699,295.090057 654.102539,294.915588 655.703857,294.964935 
	C660.400757,308.441864 666.082886,321.267548 674.060852,333.385986 
	C674.091309,339.483002 674.039490,345.251556 673.516968,351.515015 
	C655.366577,352.001892 637.686768,351.993835 620.007019,351.985779 
z"/>
<path fill="#C9C9CA" opacity="1.000000" stroke="none" 
	d="
M881.785889,363.738647 
	C873.594238,363.976898 865.203491,363.946747 856.334473,363.912354 
	C860.145020,360.083557 864.433777,356.259064 869.210449,351.999451 
	C873.443359,355.922699 877.515076,359.696503 881.785889,363.738647 
z"/>
<path fill="#FEFEFE" opacity="1.000000" stroke="none" 
	d="
M1009.139526,439.330627 
	C1012.072754,438.585876 1015.185791,438.120850 1019.154175,437.528046 
	C1019.154175,441.201721 1019.154175,443.902985 1019.039673,446.985168 
	C1015.723206,444.780853 1012.521301,442.195618 1009.139526,439.330627 
z"/>
<path fill="#2E2D3F" opacity="1.000000" stroke="none" 
	d="
M842.669434,331.562164 
	C842.925049,331.694366 843.144287,331.881653 843.363464,332.068970 
	C843.160034,332.075989 842.956665,332.083038 842.637451,331.889313 
	C842.521729,331.688538 842.632935,331.617249 842.669434,331.562164 
z"/>
<path fill="#CBCBCB" opacity="1.000000" stroke="none" 
	d="
M619.551392,352.000854 
	C637.686768,351.993835 655.366577,352.001892 673.511902,351.980042 
	C675.773804,352.040924 677.570068,352.131714 679.133057,352.210693 
	C679.513245,352.856232 679.799866,353.125214 679.824829,353.416626 
	C680.649719,363.051666 680.645996,363.050140 671.231140,363.049500 
	C653.411621,363.048340 635.592041,363.049042 617.772522,363.050018 
	C610.927063,363.050385 610.918762,363.051453 611.022766,356.366058 
	C611.040771,355.216309 611.163269,354.068207 611.295959,352.015930 
	C613.946228,352.015930 616.520996,352.015930 619.551392,352.000854 
z"/>
<path fill="#B8B8B8" opacity="1.000000" stroke="none" 
	d="
M447.700806,458.016235 
	C438.785919,475.810760 424.024780,485.020752 403.621735,486.090424 
	C403.092010,481.377777 402.998749,476.649506 402.962402,471.457092 
	C418.441101,473.998596 431.997833,469.828949 444.172668,460.312927 
	C445.197571,459.511902 446.287567,458.794159 447.700806,458.016235 
z"/>
<path fill="#929198" opacity="1.000000" stroke="none" 
	d="
M402.928040,466.664581 
	C402.527252,467.134125 402.242188,467.184814 401.749512,467.299225 
	C401.533203,456.792969 401.533203,446.272034 401.533203,435.751068 
	C402.033783,435.739777 402.534393,435.728485 403.034973,435.717194 
	C403.034973,445.877045 403.034973,456.036896 402.928040,466.664581 
z"/>
<path fill="#B8B8B8" opacity="1.000000" stroke="none" 
	d="
M448.708008,456.209106 
	C448.774750,456.577637 448.618195,457.134033 448.228271,457.873230 
	C448.158173,457.503052 448.321411,456.950012 448.708008,456.209106 
z"/>
<path fill="#C9C9CA" opacity="1.000000" stroke="none" 
	d="
M405.119080,579.214417 
	C405.379944,578.963928 405.638580,579.056091 405.981689,579.402466 
	C405.777985,579.544373 405.461548,579.511169 405.119080,579.214417 
z"/>
<path fill="#FFFFFF" opacity="1.000000" stroke="none" 
	d="
M859.060791,515.812378 
	C859.041382,504.491180 858.839844,493.166626 859.045654,481.849548 
	C859.347839,465.235413 876.790833,453.700195 889.945129,456.506958 
	C900.388000,458.735168 906.588684,464.882935 911.282715,473.272888 
	C912.862488,476.096558 912.866760,480.009216 912.928223,483.436005 
	C913.116211,493.921417 912.982117,504.412598 912.495483,515.406250 
	C894.365356,515.878052 876.713074,515.845215 859.060791,515.812378 
z"/>
<path fill="#FFFFFF" opacity="1.000000" stroke="none" 
	d="
M592.061462,515.805298 
	C592.369446,503.372070 592.102539,490.891235 593.128113,478.517487 
	C594.467590,462.356384 613.154480,451.686676 628.518066,457.823639 
	C638.983154,462.003906 646.354797,471.351532 646.052429,483.456177 
	C645.790833,493.930298 645.981873,504.415741 645.495056,515.401489 
	C627.365356,515.872925 609.713440,515.839111 592.061462,515.805298 
z"/>
<path fill="#CBCBCB" opacity="1.000000" stroke="none" 
	d="
M858.608521,515.869385 
	C876.713074,515.845215 894.365356,515.878052 912.478638,515.863037 
	C915.392944,515.947815 917.846375,516.080566 920.087585,516.201782 
	C920.449097,516.829956 920.730042,517.100403 920.754761,517.392639 
	C921.567383,526.997498 921.563843,526.997498 912.165771,526.997620 
	C894.028320,526.997864 875.890808,526.998901 857.753357,526.998962 
	C850.947388,526.999023 850.938721,526.998230 851.053040,520.284363 
	C851.072571,519.139832 851.202637,517.997131 851.321167,516.281067 
	C853.660095,516.159729 855.908203,516.043091 858.608521,515.869385 
z"/>
<path fill="#CACACA" opacity="1.000000" stroke="none" 
	d="
M591.608154,515.864746 
	C609.713440,515.839111 627.365356,515.872925 645.478271,515.857849 
	C648.057434,515.945679 650.175598,516.082397 652.232849,516.215210 
	C652.527649,516.938477 652.842224,517.377441 652.873047,517.835449 
	C653.488953,526.997131 653.482422,526.997131 644.270264,526.996948 
	C626.518494,526.996643 608.766785,526.997620 591.015015,526.996399 
	C583.772644,526.995850 583.765259,526.993713 583.967651,519.668945 
	C583.994385,518.698669 584.141724,517.731689 584.282959,516.236938 
	C586.650085,516.129211 588.902405,516.026672 591.608154,515.864746 
z"/>
<path fill="#6D64FB" opacity="1.000000" stroke="none" 
	d="
M785.197632,354.302460 
	C759.512817,356.752411 737.033752,348.950897 717.223633,332.868805 
	C715.934631,331.822418 714.662476,330.755402 713.231689,329.418335 
	C713.343689,325.723755 713.969788,322.291779 713.810425,318.896637 
	C712.774719,296.818420 723.096313,287.750946 743.653076,286.330170 
	C750.559631,285.852814 757.643372,286.213684 764.504089,287.189667 
	C775.559570,288.762329 784.961060,300.028839 785.149658,311.482605 
	C785.382141,325.602692 785.231384,339.729095 785.197632,354.302460 
z"/>
</svg>